<svg xmlns="http://www.w3.org/2000/svg" width="300" height="200" viewBox="0 0 300 200"><rect width="100%" height="100%" fill="#DDDDDD"/><path fill="#999999" d="M67.075 110.755h5.58q1.53 0 2.58-.36 1.04-.37 1.67-.99.63-.61.9-1.43.28-.82.28-1.75 0-.96-.31-1.73t-.96-1.31q-.66-.54-1.69-.83-1.04-.29-2.49-.29h-5.56zm4.69-21.07h-4.69v8.57h4.39q2.83 0 4.27-1.03 1.45-1.02 1.45-3.25 0-2.32-1.32-3.3-1.31-.99-4.1-.99m-10.2-4.26h10.2q2.92 0 4.99.55t3.39 1.58q1.32 1.02 1.94 2.48.61 1.46.61 3.28 0 1.04-.31 2-.3.95-.95 1.78t-1.64 1.51q-.99.67-2.37 1.15 6.11 1.37 6.11 6.6 0 1.88-.72 3.48-.71 1.6-2.09 2.76-1.37 1.16-3.38 1.81-2.01.66-4.59.66h-11.19zm37.31 24.21v-3.55q-2.2.1-3.69.38-1.5.28-2.4.71t-1.29 1q-.39.58-.39 1.25 0 1.33.79 1.91.78.57 2.06.57 1.55 0 2.69-.56t2.23-1.71m-10.71-11.05-.9-1.62q3.63-3.32 8.74-3.32 1.84 0 3.3.6 1.45.61 2.46 1.68 1 1.08 1.52 2.58.53 1.49.53 3.28v13.28h-2.3q-.72 0-1.11-.22-.39-.21-.61-.87l-.45-1.51q-.8.71-1.56 1.26-.76.54-1.58.91t-1.75.56q-.93.2-2.06.2-1.33 0-2.46-.36t-1.95-1.08q-.82-.71-1.27-1.78t-.45-2.48q0-.8.26-1.59.27-.79.88-1.51.6-.71 1.56-1.35.97-.64 2.37-1.11 1.41-.47 3.27-.77 1.87-.29 4.27-.35v-1.23q0-2.12-.91-3.13-.9-1.02-2.6-1.02-1.23 0-2.04.29t-1.42.65q-.62.36-1.12.64-.5.29-1.12.29-.53 0-.9-.28-.37-.27-.6-.64m24.87-3.28.31 2.38q.98-1.89 2.34-2.97 1.35-1.07 3.19-1.07 1.46 0 2.34.63l-.33 3.8q-.1.36-.29.52-.2.15-.53.15-.3 0-.91-.1-.6-.1-1.18-.1-.84 0-1.49.24-.66.25-1.18.71-.53.46-.93 1.12-.4.65-.74 1.49v12.96h-5.07v-21.03h2.97q.78 0 1.09.27.31.28.41 1m27.23 1.33-1.34 1.85q-.22.28-.44.45-.21.16-.62.16-.39 0-.76-.24-.37-.23-.88-.53-.52-.3-1.22-.53-.71-.24-1.76-.24-1.33 0-2.33.48-1.01.49-1.67 1.39-.67.9-1 2.18t-.33 2.9q0 1.68.36 3 .36 1.31 1.04 2.2.67.89 1.64 1.35.96.46 2.17.46t1.96-.29q.75-.3 1.26-.66t.89-.66q.38-.29.85-.29.62 0 .92.47l1.46 1.84q-.84.99-1.82 1.65-.99.67-2.04 1.07-1.06.4-2.18.56-1.11.17-2.22.17-1.95 0-3.67-.73t-3.01-2.12q-1.3-1.4-2.04-3.42-.75-2.01-.75-4.6 0-2.31.66-4.29.67-1.98 1.96-3.43 1.29-1.44 3.2-2.26t4.39-.82q2.35 0 4.13.76 1.77.76 3.19 2.17m7.35 5.49h9.56q0-.98-.28-1.85t-.83-1.53q-.55-.65-1.4-1.03t-1.98-.38q-2.2 0-3.46 1.25t-1.61 3.54m12.92 3.06h-13.02q.13 1.62.58 2.8t1.19 1.94q.73.77 1.75 1.15 1.01.38 2.24.38t2.12-.29q.9-.28 1.56-.63.67-.35 1.17-.64.5-.28.97-.28.64 0 .95.47l1.45 1.84q-.84.99-1.88 1.65-1.05.67-2.19 1.07-1.13.4-2.31.56-1.18.17-2.29.17-2.19 0-4.08-.73-1.88-.73-3.28-2.15-1.39-1.43-2.19-3.53t-.8-4.87q0-2.15.7-4.05.69-1.89 2-3.3 1.3-1.4 3.17-2.22 1.88-.82 4.24-.82 1.98 0 3.67.63 1.68.64 2.89 1.86t1.89 2.99q.69 1.78.69 4.05 0 1.15-.25 1.55-.24.4-.94.4m5.04-20.58h5.07v30.46h-5.07zm19.44 9.1q2.33 0 4.25.76t3.28 2.15 2.1 3.4.74 4.49q0 2.5-.74 4.51t-2.1 3.43q-1.36 1.41-3.28 2.17t-4.25.76q-2.36 0-4.29-.76-1.92-.76-3.29-2.17-1.36-1.42-2.11-3.43t-.75-4.51q0-2.48.75-4.49t2.11-3.4q1.37-1.39 3.29-2.15 1.93-.76 4.29-.76m0 17.77q2.62 0 3.88-1.76t1.26-5.17q0-3.4-1.26-5.18-1.26-1.79-3.88-1.79-2.67 0-3.95 1.8-1.28 1.79-1.28 5.17 0 3.39 1.28 5.16t3.95 1.77m18.63-16.52.35 1.66q.64-.64 1.34-1.18.71-.54 1.5-.92t1.69-.6q.9-.21 1.97-.21 1.72 0 3.05.58 1.34.59 2.23 1.64.89 1.06 1.35 2.52.46 1.47.46 3.23v13.39h-5.06v-13.39q0-1.92-.88-2.98-.89-1.06-2.69-1.06-1.31 0-2.46.6-1.15.59-2.17 1.62v15.21h-5.07v-21.03h3.1q.98 0 1.29.92m29.85 14.68v-3.55q-2.19.1-3.69.38t-2.4.71-1.29 1q-.39.58-.39 1.25 0 1.33.79 1.91.79.57 2.06.57 1.56 0 2.7-.56 1.13-.56 2.22-1.71m-10.7-11.05-.9-1.62q3.62-3.32 8.73-3.32 1.84 0 3.3.6 1.46.61 2.46 1.68 1 1.08 1.53 2.58.52 1.49.52 3.28v13.28h-2.3q-.71 0-1.1-.22-.39-.21-.62-.87l-.45-1.51q-.8.71-1.56 1.26-.76.54-1.58.91t-1.75.56q-.93.2-2.06.2-1.33 0-2.46-.36t-1.95-1.08q-.82-.71-1.27-1.78t-.45-2.48q0-.8.27-1.59.26-.79.87-1.51.6-.71 1.57-1.35.96-.64 2.37-1.11 1.4-.47 3.27-.77 1.86-.29 4.26-.35v-1.23q0-2.12-.9-3.13-.9-1.02-2.61-1.02-1.23 0-2.04.29t-1.42.65q-.62.36-1.12.64-.5.29-1.12.29-.53 0-.9-.28-.37-.27-.59-.64"/></svg>