<svg xmlns="http://www.w3.org/2000/svg" width="300" height="200" viewBox="0 0 300 200"><rect width="100%" height="100%" fill="#DDDDDD"/><path fill="#999999" d="M90.45 78.98h7.97v42.66h-7.97V103H70.42v18.64h-7.96V78.98h7.96v18.35h20.03zm32.31 34.84v-5.1q-3.16.15-5.31.54-2.16.4-3.46 1.02-1.29.62-1.85 1.45-.56.82-.56 1.8 0 1.91 1.13 2.74 1.14.83 2.97.83 2.24 0 3.87-.81 1.64-.82 3.21-2.47m-15.4-15.9-1.3-2.33q5.22-4.78 12.57-4.78 2.65 0 4.75.87 2.09.87 3.54 2.42 1.44 1.55 2.19 3.7.76 2.16.76 4.72v19.12h-3.31q-1.03 0-1.59-.31t-.89-1.25l-.65-2.19q-1.15 1.04-2.24 1.82t-2.27 1.31-2.52.81-2.97.28q-1.91 0-3.54-.51-1.62-.52-2.8-1.55-1.18-1.04-1.83-2.57t-.65-3.57q0-1.15.39-2.29.38-1.13 1.25-2.16.87-1.04 2.26-1.95 1.38-.92 3.4-1.59 2.03-.68 4.71-1.11t6.14-.52v-1.77q0-3.03-1.3-4.49-1.3-1.47-3.75-1.47-1.77 0-2.93.42-1.17.41-2.05.93-.89.51-1.61.93-.72.41-1.61.41-.77 0-1.3-.4t-.85-.93m67.02-6.55h5.55l-9.62 30.27h-5.84q-1 0-1.39-1.3l-5.43-17.49q-.26-.89-.48-1.76t-.37-1.75q-.18.88-.4 1.78t-.49 1.79l-5.51 17.43q-.36 1.3-1.57 1.3h-5.6l-9.59-30.27h5.81q.8 0 1.36.39.56.38.74.97l4.33 16.17q.33 1.32.58 2.59t.43 2.54q.32-1.27.69-2.54t.78-2.59l5.02-16.23q.17-.59.69-.97.52-.39 1.25-.39h3.22q.77 0 1.31.39.55.38.72.97l4.87 16.23q.39 1.32.72 2.61.34 1.28.67 2.55.38-2.51 1.09-5.16l4.45-16.17q.21-.59.74-.97.53-.39 1.27-.39m25.67 22.45v-5.1q-3.16.15-5.31.54-2.16.4-3.46 1.02-1.29.62-1.85 1.45-.56.82-.56 1.8 0 1.91 1.13 2.74 1.14.83 2.97.83 2.24 0 3.87-.81 1.64-.82 3.21-2.47m-15.4-15.9-1.3-2.33q5.22-4.78 12.57-4.78 2.65 0 4.75.87 2.09.87 3.54 2.42 1.44 1.55 2.19 3.7.76 2.16.76 4.72v19.12h-3.31q-1.03 0-1.59-.31t-.89-1.25l-.65-2.19q-1.15 1.04-2.24 1.82t-2.27 1.31-2.52.81-2.97.28q-1.91 0-3.54-.51-1.62-.52-2.8-1.55-1.18-1.04-1.83-2.57t-.65-3.57q0-1.15.39-2.29.38-1.13 1.25-2.16.87-1.04 2.26-1.95 1.38-.92 3.4-1.59 2.03-.68 4.71-1.11t6.14-.52v-1.77q0-3.03-1.3-4.49-1.3-1.47-3.75-1.47-1.77 0-2.93.42-1.17.41-2.05.93-.89.51-1.61.93-.72.41-1.61.41-.77 0-1.3-.4t-.85-.93m29.59-6.55h7.31v30.27h-7.31zm8.31-8.82q0 .95-.38 1.77-.38.83-1.02 1.45-.63.62-1.49.99-.85.36-1.83.36-.94 0-1.78-.36-.84-.37-1.46-.99t-.99-1.45q-.37-.82-.37-1.77 0-.97.37-1.83.37-.85.99-1.47t1.46-.99 1.78-.37q.98 0 1.83.37.86.37 1.49.99.64.62 1.02 1.47.38.86.38 1.83m6.67 8.82h7.32v30.27h-7.32zm8.32-8.82q0 .95-.38 1.77-.39.83-1.02 1.45-.64.62-1.49.99-.86.36-1.83.36-.94 0-1.78-.36-.85-.37-1.46-.99-.62-.62-.99-1.45-.37-.82-.37-1.77 0-.97.37-1.83.37-.85.99-1.47.61-.62 1.46-.99.84-.37 1.78-.37.97 0 1.83.37.85.37 1.49.99.63.62 1.02 1.47.38.86.38 1.83"/></svg>