<svg xmlns="http://www.w3.org/2000/svg" width="300" height="200" viewBox="0 0 300 200"><rect width="100%" height="100%" fill="#DDDDDD"/><path fill="#999999" d="M74.225 82.78v18.18q0 2.38-.59 4.29-.58 1.91-1.74 3.25-1.16 1.35-2.9 2.07-1.73.72-4.03.72-1.06 0-2.07-.12-1.02-.13-2.13-.4.06-.78.14-1.56t.14-1.56q.05-.43.34-.7.28-.26.81-.26.33 0 .86.14.54.13 1.36.13 1.11 0 1.97-.32t1.43-1.02q.58-.7.87-1.83.29-1.12.29-2.72V82.78zm9.05 15.9h9.08q0-.94-.26-1.77t-.79-1.45q-.53-.63-1.34-.99t-1.88-.36q-2.08 0-3.28 1.19t-1.53 3.38m12.28 2.9h-12.38q.12 1.54.54 2.66.43 1.12 1.14 1.86.7.73 1.66 1.09.97.36 2.14.36t2.02-.28q.84-.27 1.48-.6.63-.33 1.11-.6.48-.28.93-.28.6 0 .89.45l1.39 1.76q-.8.93-1.8 1.57-.99.63-2.07 1.01-1.09.38-2.21.54-1.12.15-2.17.15-2.09 0-3.88-.69-1.8-.69-3.12-2.05-1.33-1.35-2.09-3.35t-.76-4.63q0-2.05.66-3.85.67-1.81 1.91-3.14 1.23-1.34 3.02-2.12 1.78-.78 4.02-.78 1.9 0 3.5.61 1.59.6 2.74 1.76 1.16 1.16 1.81 2.85.65 1.68.65 3.85 0 1.09-.23 1.47-.24.38-.9.38m4.9-10.61h4.83v20.69q0 1.31-.34 2.46t-1.09 2.02-1.97 1.36q-1.22.5-2.98.5-.68 0-1.26-.09-.59-.09-1.21-.28l.17-2.59q.06-.39.32-.5.25-.11.97-.11t1.22-.14q.5-.15.79-.47t.42-.85.13-1.31zm5.49-5.83q0 .63-.25 1.17-.25.55-.67.96t-1 .65q-.57.24-1.22.24-.62 0-1.17-.24-.54-.24-.95-.65t-.65-.96q-.25-.54-.25-1.17 0-.64.25-1.21.24-.56.65-.97t.95-.65q.55-.25 1.17-.25.65 0 1.22.25.58.24 1 .65t.67.97q.25.57.25 1.21m16.68 5.83h4.81v20.01h-2.94q-.96 0-1.21-.88l-.33-1.6q-1.23 1.25-2.71 2.02t-3.49.77q-1.64 0-2.9-.55-1.26-.56-2.11-1.57-.86-1.02-1.3-2.41-.44-1.4-.44-3.07V90.97h4.82v12.72q0 1.83.85 2.83.84 1.01 2.54 1.01 1.25 0 2.34-.56 1.09-.55 2.07-1.53zm25.07-8.19v28.2h-5.26v-28.2zm18.84 10.36-1.09 1.73q-.2.32-.41.44-.22.13-.55.13-.35 0-.75-.2-.4-.19-.92-.44-.53-.24-1.2-.43-.68-.2-1.59-.2-1.43 0-2.23.61-.81.6-.81 1.57 0 .65.42 1.09.41.44 1.11.77.69.33 1.57.59.87.27 1.78.58t1.78.71q.88.4 1.57 1.01.7.62 1.12 1.48.42.85.42 2.06 0 1.45-.52 2.66-.52 1.22-1.53 2.11-1.02.89-2.51 1.38-1.49.5-3.44.5-1.03 0-2.02-.18-.98-.19-1.89-.52t-1.68-.78-1.35-.98l1.11-1.83q.21-.33.51-.51.29-.17.74-.17t.85.25q.4.26.92.55.53.29 1.24.55.71.25 1.8.25.86 0 1.48-.21.61-.2 1.01-.53t.59-.77q.18-.44.18-.91 0-.7-.42-1.15t-1.11-.78-1.58-.59q-.89-.27-1.81-.58-.93-.31-1.82-.73-.88-.42-1.58-1.06-.69-.65-1.11-1.58-.42-.94-.42-2.27 0-1.22.49-2.34.49-1.11 1.43-1.94.95-.82 2.36-1.32 1.42-.5 3.27-.5 2.07 0 3.76.68 1.7.69 2.83 1.8m3.9-11.14h4.82v28.98h-4.82zm20.2 23.81v-3.37q-2.08.1-3.51.36-1.42.26-2.28.67t-1.23.96q-.37.54-.37 1.19 0 1.27.75 1.81.75.55 1.96.55 1.48 0 2.57-.54 1.08-.54 2.11-1.63m-10.18-10.51-.85-1.54q3.45-3.16 8.3-3.16 1.76 0 3.14.58 1.39.57 2.34 1.6.96 1.02 1.46 2.44.49 1.43.49 3.12v12.64h-2.18q-.68 0-1.05-.2-.38-.21-.59-.83l-.43-1.45q-.76.69-1.48 1.2-.72.52-1.5.87t-1.67.54q-.89.18-1.96.18-1.27 0-2.34-.34t-1.85-1.02q-.78-.69-1.21-1.7t-.43-2.36q0-.76.25-1.51.26-.75.83-1.43.58-.69 1.49-1.29.92-.61 2.26-1.05 1.33-.45 3.11-.73 1.77-.29 4.05-.35v-1.17q0-2-.86-2.97-.85-.96-2.47-.96-1.17 0-1.94.27t-1.36.61l-1.06.62q-.48.27-1.06.27-.51 0-.86-.26-.35-.27-.57-.62m23.58-3.45.33 1.58q.61-.6 1.28-1.12t1.42-.88 1.61-.56q.86-.21 1.87-.21 1.64 0 2.91.56 1.27.55 2.11 1.56.85 1 1.29 2.4.44 1.39.44 3.07v12.73h-4.82V98.25q0-1.84-.84-2.84-.83-1-2.55-1-1.25 0-2.34.56-1.09.57-2.07 1.54v14.47h-4.81V90.97h2.94q.94 0 1.23.88m30.38 13.2v-8.97q-.82-.99-1.78-1.4-.97-.41-2.08-.41-1.09 0-1.97.41t-1.5 1.24q-.63.83-.96 2.1-.33 1.28-.33 3.01 0 1.76.28 2.98.29 1.22.81 1.99.53.77 1.29 1.11t1.7.34q1.5 0 2.55-.62 1.05-.63 1.99-1.78m0-23.05h4.82v28.98h-2.95q-.95 0-1.21-.88l-.41-1.93q-1.21 1.39-2.77 2.24-1.57.86-3.66.86-1.64 0-3-.68-1.37-.68-2.35-1.98-.99-1.3-1.52-3.21-.54-1.91-.54-4.37 0-2.22.6-4.13.61-1.91 1.74-3.31 1.13-1.41 2.71-2.2t3.55-.79q1.68 0 2.86.53 1.19.53 2.13 1.42z"/></svg>